<?xml version="1.0" encoding="utf-8"?>
<!-- Generator: Adobe Illustrator 19.0.0, SVG Export Plug-In . SVG Version: 6.00 Build 0)  -->
<svg version="1.1" id="Layer_1" xmlns="http://www.w3.org/2000/svg" xmlns:xlink="http://www.w3.org/1999/xlink" x="0px" y="0px"
	 viewBox="0 0 100 100" style="enable-background:new 0 0 100 100;" xml:space="preserve">
<style type="text/css">
	.st0{fill:#010101;}
</style>
<g id="XMLID_1_">
	<g id="colour-_x2F_-slate">
	</g>
	<path id="XMLID_4_" class="st0" d="M50.3,0C22.7-0.2,0.2,22.1,0,49.7C-0.2,77.3,22.1,99.8,49.7,100c27.6,0.2,50.1-22.1,50.3-49.7
		C100.2,22.7,77.9,0.2,50.3,0z M50,47c1.1,0,2,0.9,2,2c0,1.1-0.9,2-2,2c-1.1,0-2-0.9-2-2C48,47.9,48.9,47,50,47z M60,79H40v-6h2.1
		h2.1h11.8h2.1H60V79z M60,69H59h-1.1H42h-1h-1.2L28,48.9L48.1,21v3.1v3.1v16.2c-2,0.7-3.5,2.7-3.5,4.9c0,2.9,2.4,5.2,5.3,5.2
		s5.3-2.4,5.3-5.2c0-2.2-1.4-4.2-3.5-4.9v-16v-3.1v-3.1L72,48.9L60,69z"/>
</g>
</svg>
