<?xml version="1.0" encoding="utf-8"?>
<!-- Generator: Adobe Illustrator 19.0.0, SVG Export Plug-In . SVG Version: 6.00 Build 0)  -->
<svg version="1.1" id="Layer_1" xmlns="http://www.w3.org/2000/svg" xmlns:xlink="http://www.w3.org/1999/xlink" x="0px" y="0px"
	 viewBox="-909 591 100 100" style="enable-background:new -909 591 100 100;" xml:space="preserve">
<title>icon / cross</title>
<desc>Created with Sketch.</desc>
<title>icon / doc-bk</title>
<desc>Created with Sketch.</desc>
<g id="colour-_x2F_-cerulean">
</g>
<title>icon / download</title>
<desc>Created with Sketch.</desc>
<g id="colour-_x2F_-cerulean_1_">
</g>
<title>icon / earth</title>
<desc>Created with Sketch.</desc>
<g id="colour-_x2F_-cerulean_2_">
</g>
<title>icon / export</title>
<desc>Created with Sketch.</desc>
<g id="colour-_x2F_-cerulean_3_">
</g>
<g id="_xD83C__xDFA8_Colour-_x2F_-Green-_x2F_-Dark">
</g>
<g>
	<path d="M-836.9,617.2L-836.9,617.2l0-25.6H-909v53.1h9.7v20.2l21.6-20.2h40.9v-18.3h0V617.2z M-846.2,635.4h-36.3l-7.5,7.4v-7.4
		h-9.7v-34.7h53.5V635.4z"/>
	<polygon points="-836.9,617.2 -836.9,626.3 -818.3,626.3 -818.3,661.1 -828,661.1 -828,668.4 -835.5,661.1 -871.8,661.1 
		-871.8,644.6 -877.8,644.6 -881.1,647.7 -881.1,670.2 -839.3,670.2 -818.7,690.5 -818.7,670.2 -809,670.2 -809,617.2 	"/>
</g>
</svg>
