<?xml version="1.0" encoding="utf-8"?>
<!-- Generator: Adobe Illustrator 19.0.0, SVG Export Plug-In . SVG Version: 6.00 Build 0)  -->
<svg version="1.1" id="Layer_1" xmlns="http://www.w3.org/2000/svg" xmlns:xlink="http://www.w3.org/1999/xlink" x="0px" y="0px"
	 viewBox="0 0 100 100" style="enable-background:new 0 0 100 100;" xml:space="preserve">
<style type="text/css">
	.st0{fill:#010101;}
</style>
<g id="Symbols">
	<g id="icon-_x2F_-checkmark">
		<g id="tick-inside-circle" transform="translate(3.000000, 2.000000)">
			<path id="Shape" class="st0" d="M26.5,38.5l-7,7L42,68l50-50l-7-7L42,54L26.5,38.5z M87,48c0,22-18,40-40,40S7,70,7,48S25,8,47,8
				c4,0,7.5,0.5,11,1.5l8-8C60-0.5,53.5-2,47-2C19.5-2-3,20.5-3,48s22.5,50,50,50s50-22.5,50-50H87z"/>
		</g>
		<g id="colour-_x2F_-cerulean">
		</g>
	</g>
</g>
</svg>
