<?xml version="1.0" encoding="utf-8"?>
<!-- Generator: Adobe Illustrator 19.0.0, SVG Export Plug-In . SVG Version: 6.00 Build 0)  -->
<svg version="1.1" id="Layer_1" xmlns="http://www.w3.org/2000/svg" xmlns:xlink="http://www.w3.org/1999/xlink" x="0px" y="0px"
	 viewBox="0 0 100 100" style="enable-background:new 0 0 100 100;" xml:space="preserve">
<path id="XMLID_14_" d="M50,0C22.4,0,0,22.4,0,50s22.4,50,50,50s50-22.4,50-50S77.6,0,50,0z M50,95C25.2,95,5,74.8,5,50S25.2,5,50,5
	s45,20.2,45,45S74.8,95,50,95z"/>
<path id="XMLID_15_" d="M63,37.9L44,56.9l-7-7c-1-1-2.5-1-3.5,0c-1,1-1,2.5,0,3.5l8.7,8.8c0.5,0.5,1.1,0.7,1.8,0.7
	c0.6,0,1.3-0.2,1.7-0.7l20.8-20.8c1-1,1-2.5,0-3.5C65.6,36.9,64,36.9,63,37.9z"/>
</svg>
