<?xml version="1.0" encoding="utf-8"?>
<!-- Generator: Adobe Illustrator 19.0.0, SVG Export Plug-In . SVG Version: 6.00 Build 0)  -->
<svg version="1.1" id="Layer_1" xmlns="http://www.w3.org/2000/svg" xmlns:xlink="http://www.w3.org/1999/xlink" x="0px" y="0px"
	 viewBox="0 0 100 100" style="enable-background:new 0 0 100 100;" xml:space="preserve">
<style type="text/css">
	.st0{fill:#010101;}
</style>
<g id="Homepage">
	<g id="_x30_.-Homepage_x5F_iiot-3" transform="translate(-1359.000000, -1400.000000)">
		<g id="Group-4" transform="translate(1359.000000, 1400.000000)">
			<g id="Group-14">
				<path id="Fill-10" class="st0" d="M50,5.6c24.4,0,44.4,20,44.4,44.4c0,24.4-20,44.4-44.4,44.4S5.6,74.4,5.6,50
					C5.6,25.6,25.6,5.6,50,5.6 M50,100c27.6,0,50-22.4,50-50c0-27.6-22.4-50-50-50C22.4,0,0,22.4,0,50C0,77.6,22.4,100,50,100"/>
				<path id="Fill-12" class="st0" d="M40,35.4L65,50L40,64.6V35.4z M35.9,71.8c0.4,0.3,1.1,0.4,1.5,0.4s1-0.1,1.4-0.4l33.4-19.4
					c0.8-0.6,1.4-1.4,1.4-2.4s-0.6-1.9-1.4-2.4L38.9,28.2c-0.8-0.6-2.1-0.6-3,0c-0.8,0.6-1.6,1.4-1.6,2.4v38.9
					C34.4,70.4,35.1,71.4,35.9,71.8L35.9,71.8z"/>
			</g>
		</g>
	</g>
</g>
</svg>
