<?xml version="1.0" encoding="utf-8"?>
<!-- Generator: Adobe Illustrator 19.0.0, SVG Export Plug-In . SVG Version: 6.00 Build 0)  -->
<svg version="1.1" id="Layer_1" xmlns="http://www.w3.org/2000/svg" xmlns:xlink="http://www.w3.org/1999/xlink" x="0px" y="0px"
	 viewBox="-909 591 100 100" style="enable-background:new -909 591 100 100;" xml:space="preserve">
<style type="text/css">
	.st0{filter:url(#Adobe_OpacityMaskFilter);}
	.st1{fill:#FFFFFF;}
	.st2{mask:url(#mask-2_1_);}
</style>
<title>icon / cross</title>
<desc>Created with Sketch.</desc>
<title>icon / doc-bk</title>
<desc>Created with Sketch.</desc>
<g id="colour-_x2F_-cerulean">
</g>
<title>icon / download</title>
<desc>Created with Sketch.</desc>
<g id="colour-_x2F_-cerulean_1_">
</g>
<title>icon / earth</title>
<desc>Created with Sketch.</desc>
<g id="colour-_x2F_-cerulean_2_">
</g>
<title>icon / export</title>
<desc>Created with Sketch.</desc>
<g id="colour-_x2F_-cerulean_3_">
</g>
<title>icon / magnifier</title>
<desc>Created with Sketch.</desc>
<g id="colour-_x2F_-cerulean_4_">
</g>
<g id="_x33_.1.2-Support-Form----2" transform="translate(-528.000000, -2008.000000)">
	<g id="Group-3" transform="translate(484.000000, 1966.000000)">
		<g id="Group-2" transform="translate(0.000000, 28.000000)">
			<g id="Group" transform="translate(44.000000, 11.000000)">
				<g id="icon-_x2F_-clip" transform="translate(-0.000000, 3.000000)">
					<g id="Mask">
						<path id="path-1_1_" d="M-815.7,600.9l-2.4-2.5c-4.3-4.4-10.1-6.8-16.2-6.8c-6.2,0-11.9,2.4-16.3,6.8l-53.6,53.7
							c-6.4,6.5-6.4,17,0,23.5l1.7,1.7c3.2,3.2,7.7,5.1,12.3,5.1c4.4,0,8.5-1.7,11.5-4.7l48.1-48.7c3.7-3.8,3.8-10,0-13.7l-0.9-0.9
							c-1.8-1.8-4.2-2.8-6.8-2.8c-2.6,0-5,1-6.8,2.9l-44.5,45c-0.7,0.7-0.7,1.9,0,2.6c0.7,0.7,1.9,0.7,2.6,0l44.5-45
							c1.1-1.1,2.6-1.8,4.2-1.8c1.6,0,3.1,0.6,4.2,1.7l0.9,0.9c2.3,2.4,2.3,6.2,0,8.6l-48.1,48.7c-2.3,2.3-5.4,3.6-8.8,3.6
							c-3.6,0-7.1-1.5-9.6-4l-1.7-1.7c-5-5-5-13.3,0-18.3l53.6-53.7c3.7-3.7,8.5-5.7,13.7-5.7c5.1,0,9.9,2,13.5,5.7l2.4,2.5
							c7.5,7.6,7.5,20-0.1,27.6l-54,54.6c-0.7,0.7-0.7,1.9,0,2.6c0.4,0.4,0.8,0.5,1.3,0.5c0.5,0,1-0.2,1.3-0.5l54-54.6
							C-806.8,624.6-806.8,609.9-815.7,600.9z"/>
					</g>
					<defs>
						<filter id="Adobe_OpacityMaskFilter" filterUnits="userSpaceOnUse">
							<feColorMatrix  type="matrix" values="1 0 0 0 0  0 1 0 0 0  0 0 1 0 0  0 0 0 1 0"/>
						</filter>
					</defs>
					<mask maskUnits="userSpaceOnUse" id="mask-2_1_">
						<g class="st0">
							<path id="path-1_2_" class="st1" d="M-815.7,600.9l-2.4-2.5c-4.3-4.4-10.1-6.8-16.2-6.8c-6.2,0-11.9,2.4-16.3,6.8l-53.6,53.7
								c-6.4,6.5-6.4,17,0,23.5l1.7,1.7c3.2,3.2,7.7,5.1,12.3,5.1c4.4,0,8.5-1.7,11.5-4.7l48.1-48.7c3.7-3.8,3.8-10,0-13.7l-0.9-0.9
								c-1.8-1.8-4.2-2.8-6.8-2.8c-2.6,0-5,1-6.8,2.9l-44.5,45c-0.7,0.7-0.7,1.9,0,2.6c0.7,0.7,1.9,0.7,2.6,0l44.5-45
								c1.1-1.1,2.6-1.8,4.2-1.8c1.6,0,3.1,0.6,4.2,1.7l0.9,0.9c2.3,2.4,2.3,6.2,0,8.6l-48.1,48.7c-2.3,2.3-5.4,3.6-8.8,3.6
								c-3.6,0-7.1-1.5-9.6-4l-1.7-1.7c-5-5-5-13.3,0-18.3l53.6-53.7c3.7-3.7,8.5-5.7,13.7-5.7c5.1,0,9.9,2,13.5,5.7l2.4,2.5
								c7.5,7.6,7.5,20-0.1,27.6l-54,54.6c-0.7,0.7-0.7,1.9,0,2.6c0.4,0.4,0.8,0.5,1.3,0.5c0.5,0,1-0.2,1.3-0.5l54-54.6
								C-806.8,624.6-806.8,609.9-815.7,600.9z"/>
						</g>
					</mask>
					<g id="colour-_x2F_-black-70" class="st2">
					</g>
				</g>
			</g>
		</g>
	</g>
</g>
</svg>
