<?xml version="1.0" encoding="utf-8"?>
<!-- Generator: Adobe Illustrator 19.0.0, SVG Export Plug-In . SVG Version: 6.00 Build 0)  -->
<svg version="1.1" id="Layer_1" xmlns="http://www.w3.org/2000/svg" xmlns:xlink="http://www.w3.org/1999/xlink" x="0px" y="0px"
	 viewBox="0 0 100 100" style="enable-background:new 0 0 100 100;" xml:space="preserve">
<style type="text/css">
	.st0{fill:#231F20;}
</style>
<title>icon / cross</title>
<desc>Created with Sketch.</desc>
<title>icon / doc-bk</title>
<desc>Created with Sketch.</desc>
<g id="colour-_x2F_-cerulean">
</g>
<title>icon / download</title>
<desc>Created with Sketch.</desc>
<g id="colour-_x2F_-cerulean_1_">
</g>
<title>icon / earth</title>
<desc>Created with Sketch.</desc>
<g id="colour-_x2F_-cerulean_2_">
</g>
<path id="XMLID_12_" class="st0" d="M96.4,31.6c-0.1-0.2-0.1-0.4-0.2-0.5C85.8,5.5,56.6-6.7,31.1,3.7C18.8,8.8,8.8,18.7,3.8,31
	c-0.1,0.2-0.2,0.4-0.2,0.6c-4.7,11.9-4.7,25,0,36.9c0.1,0.2,0.1,0.4,0.2,0.6c7.9,19.3,26.6,31,46.3,31c6.3,0,12.7-1.2,18.9-3.7
	c12.3-5,22.2-15,27.3-27.3c0.1-0.2,0.2-0.4,0.2-0.5C101.2,56.5,101.2,43.5,96.4,31.6z M88.6,29.3H74.3c-1.9-8.1-5-15.2-8.8-20.3
	C75.3,12.8,83.6,20,88.6,29.3z M70.3,50c0,4.8-0.4,9.7-1.2,14.5H30.9c-1.6-9.6-1.6-19.3,0-29h38.3C69.9,40.3,70.3,45.2,70.3,50z
	 M50,6.2c7.2,0,14.2,9,17.8,23.1H32.2C35.8,15.2,42.8,6.2,50,6.2z M34.5,9c-3.8,5.1-6.9,12.1-8.8,20.3H11.4
	C16.4,20,24.7,12.8,34.5,9z M6.2,50c0-5,0.8-9.8,2.5-14.5h15.9c-1.5,9.6-1.5,19.3,0,29H8.7C7,59.8,6.2,55,6.2,50z M11.4,70.7h14.3
	c1.9,8.1,5,15.2,8.8,20.3C24.7,87.2,16.5,80,11.4,70.7z M50,93.8c-7.2,0-14.2-9-17.8-23.1h35.6C64.2,84.8,57.2,93.8,50,93.8z
	 M65.5,91c3.8-5.1,6.9-12.1,8.8-20.3h14.3C83.6,80,75.3,87.2,65.5,91z M91.3,64.5H75.5c0.7-4.8,1.1-9.7,1.1-14.5
	c0-4.8-0.4-9.7-1.1-14.5h15.9C94.6,44.9,94.6,55.1,91.3,64.5z"/>
</svg>
