<?xml version="1.0" encoding="utf-8"?>
<!-- Generator: Adobe Illustrator 19.0.0, SVG Export Plug-In . SVG Version: 6.00 Build 0)  -->
<svg version="1.1" id="Layer_1" xmlns="http://www.w3.org/2000/svg" xmlns:xlink="http://www.w3.org/1999/xlink" x="0px" y="0px"
	 viewBox="0 0 100 100" style="enable-background:new 0 0 100 100;" xml:space="preserve">
<style type="text/css">
	.st0{fill:#010101;}
</style>
<path id="XMLID_4_" class="st0" d="M62.7,54.3c4.5-5.7,7.3-12.8,7.3-20.6C70.2,15.1,54.8,0,36,0C17.1,0,1.9,15.1,1.9,33.6
	S17.2,67.2,36,67.2c6.3,0,12.2-1.9,17.2-4.8L88.9,100l9.2-8.7L62.7,54.3z M36,59.9c-14.8,0-26.6-11.7-26.6-26.3
	C9.4,19.1,21.3,7.4,36,7.4s26.6,11.7,26.6,26.2C62.5,48,50.7,59.9,36,59.9z"/>
<polygon id="XMLID_2_" class="st0" points="55.2,30.3 39.4,30.3 39.4,14.5 32.6,14.5 32.6,30.3 16.8,30.3 16.8,37 32.6,37 
	32.6,52.8 39.4,52.8 39.4,37 55.2,37 "/>
</svg>
